PathFileType	4	(X/Y/Z)	E:\Qualisys_Data\Carbon_Farble_Plate\Data\Amateur_Runner\S14\T1\S14T1V21_c3d.trc
DataRate	CameraRate	NumFrames	NumMarkers	Units	OrigDataRate	OrigDataStartFrame	OrigNumFrames
200.000000	200.000000	4	39	mm	200.000000	153	306
Frame#	Time	LSHO			RSHO			LICST			RICST			LASIS			LHEEL			RASIS			LTROC			RTROC			SACR			LTH1			LSK4			LTH2			LTH3			RHM5			LSK2			LTH4			RTH1			LTOE			RTH2			RTH3			RTH4			LLEP			RLEP			LSK1			LSK3			RSK1			LHM5			RSK2			LFT1			RSK3			RSK4			LLME			RLME			RTOE			RHEEL			RFT1			RFT2			LFT2			
		X1	Y1	Z1	X2	Y2	Z2	X3	Y3	Z3	X4	Y4	Z4	X5	Y5	Z5	X6	Y6	Z6	X7	Y7	Z7	X8	Y8	Z8	X9	Y9	Z9	X10	Y10	Z10	X11	Y11	Z11	X12	Y12	Z12	X13	Y13	Z13	X14	Y14	Z14	X15	Y15	Z15	X16	Y16	Z16	X17	Y17	Z17	X18	Y18	Z18	X19	Y19	Z19	X20	Y20	Z20	X21	Y21	Z21	X22	Y22	Z22	X23	Y23	Z23	X24	Y24	Z24	X25	Y25	Z25	X26	Y26	Z26	X27	Y27	Z27	X28	Y28	Z28	X29	Y29	Z29	X30	Y30	Z30	X31	Y31	Z31	X32	Y32	Z32	X33	Y33	Z33	X34	Y34	Z34	X35	Y35	Z35	X36	Y36	Z36	X37	Y37	Z37	X38	Y38	Z38	X39	Y39	Z39	

154	0.765	200.1090698242188	1453.6005859375	-483.4111022949219	168.4501342773438	1446.653442382812	-192.8372192382812	168.2105255126953	998.8991088867188	-474.5874938964844	197.5455627441406	993.992431640625	-202.7961730957031	203.2437438964844	944.9699096679688	-453.8526000976562	-396.5582885742188	471.3675231933594	-350.677734375	221.3177032470703	951.812744140625	-225.6376647949219	39.10758209228516	898.0819702148438	-487.4246520996094	85.34503936767578	897.5343017578125	-165.2472076416016	44.66445541381836	1005.601867675781	-334.1896057128906	53.55052185058594	665.281982421875	-502.5018005371094	-241.6783599853516	507.0864868164062	-447.2269897460938	-17.93709373474121	687.8348388671875	-473.7382507324219	32.42630004882812	568.418701171875	-488.6156921386719	535.732421875	130.7204895019531	-194.3133697509766	-149.6277465820312	535.4141235351562	-473.1516418457031	-41.35454177856445	592.5162963867188	-462.3822937011719	287.156494140625	699.8853759765625	-176.1601867675781	-474.0499267578125	224.8203887939453	-382.9079895019531	214.1222534179688	669.7208251953125	-161.4936218261719	323.6766662597656	611.5433349609375	-209.3392028808594	249.5904998779297	576.7772216796875	-185.441162109375	-26.85995674133301	519.7635498046875	-479.6297302246094	299.5315246582031	521.2294311523438	-196.4454956054688	-125.1621780395508	456.2969665527344	-474.2981567382812	-221.2684173583984	428.7935485839844	-453.3475952148438	355.2877502441406	411.4385681152344	-193.7109985351562	-485.9006958007812	299.4964294433594	-433.3049926757812	273.4689025878906	386.4443359375	-191.6587066650391	-414.7317810058594	460.3070068359375	-319.2592468261719	379.6064453125	311.2101440429688	-205.2055053710938	302.3103332519531	293.8895568847656	-204.2990875244141	-395.5640869140625	422.6099853515625	-416.8855285644531	391.8944702148438	129.2992706298828	-223.8995971679688	593.8580322265625	181.1326293945312	-253.6409606933594	354.4007263183594	77.82217407226562	-278.1854248046875	382.3698425292969	61.5309944152832	-309.8843994140625	367.9161682128906	55.57798767089844	-253.3157958984375	-426.6379089355469	478.5005493164062	-371.29931640625
155	0.77	219.6537170410156	1449.453002929688	-482.9174499511719	188.8339385986328	1441.487060546875	-191.8874816894531	188.0480499267578	994.85498046875	-474.1617126464844	216.7139739990234	990.5545043945312	-202.2143707275391	222.9880828857422	941.1279296875	-453.0509033203125	-371.808837890625	474.9373168945312	-350.3791809082031	240.7237701416016	948.3087158203124	-224.7854309082031	59.54841232299805	892.873291015625	-489.1120910644531	103.3054962158203	893.8892822265625	-165.7423858642578	64.07892608642578	1001.674987792969	-334.9165954589844	76.7401351928711	659.7095947265625	-503.3433532714844	-215.2018280029297	505.8530883789062	-447.7648620605469	5.248609066009521	681.19384765625	-474.8180236816406	57.41690063476562	562.3419189453125	-489.7891235351562	547.4640502929688	123.2722854614258	-196.7294006347656	-122.90576171875	531.6550903320312	-474.7924499511719	-16.96706008911133	585.3226318359375	-463.7543334960938	307.962890625	696.8674926757812	-175.9926910400391	-451.0289916992188	229.0725860595703	-384.2223510742188	234.8732147216797	666.5526733398438	-163.0931091308594	344.53076171875	608.5317993164062	-209.4982757568359	270.1935424804688	573.7218017578125	-187.2205352783203	-1.245317935943604	513.1965942382812	-481.1202087402344	319.6273193359375	517.6061401367188	-197.7437896728516	-100.1553955078125	451.9010620117188	-475.5888366699219	-197.2229309082031	426.9668273925781	-453.5059814453125	373.1571044921875	406.490478515625	-194.8135833740234	-462.5252685546875	304.0346374511719	-433.857666015625	291.1465148925781	383.3229370117188	-192.5523834228516	-390.1419677734375	463.7110290527344	-318.8043518066406	395.7332153320312	306.0468444824219	-206.6631317138672	317.9117126464844	290.201171875	-205.6366882324219	-371.2718200683594	426.1140747070312	-416.3069763183594	403.7188110351562	123.991569519043	-225.8740692138672	605.986328125	172.5683135986328	-256.3341674804688	365.1063232421875	72.97418975830078	-280.1360473632812	392.4359741210938	56.08150100708008	-311.8895263671875	378.2474060058594	49.8837890625	-255.1134185791016	-402.3085327148438	482.1988220214844	-370.7444763183594
156	0.775	239.5609130859375	1444.764526367188	-482.3943786621094	209.4606781005859	1436.312255859375	-190.9777221679688	207.8970642089844	990.6251831054688	-474.2484741210938	235.3619537353516	986.4613037109376	-201.6131744384766	242.7992858886719	936.978759765625	-452.5279541015625	-346.6239624023438	478.2123107910156	-349.7707824707031	259.8892822265625	944.5269775390624	-224.3093414306641	79.94004821777344	887.8443603515625	-489.4761352539062	122.0686187744141	889.8247680664062	-165.9680786132812	83.40154266357422	997.1192016601562	-335.0775451660156	100.9159622192383	653.9741821289062	-505.1818542480469	-188.3079833984375	504.3225402832031	-448.4962158203125	28.20638275146484	673.6082153320312	-476.1583557128906	82.64672088623047	556.0930786132812	-491.0973815917969	558.0414428710938	115.564323425293	-198.9059295654297	-95.28201293945312	527.2401733398438	-475.5881042480469	7.888361930847168	577.8008422851562	-465.5496826171875	329.0054321289062	693.5160522460938	-176.5177154541016	-427.3187866210938	233.0578765869141	-384.9197692871094	255.2651214599609	663.6576538085938	-164.2334594726562	365.5977783203125	605.0123901367188	-209.5417785644531	290.7916259765625	570.5233764648438	-188.3785247802734	25.38439750671387	505.3223876953125	-481.6632995605469	340.3272399902344	514.318359375	-198.7694091796875	-74.80754852294922	447.3710327148438	-476.7982177734375	-172.1808776855469	425.0708923339844	-454.569580078125	391.3369750976562	401.2997741699219	-195.9980926513672	-438.6480102539062	308.8632202148438	-434.5690002441406	308.5854187011719	380.05615234375	-194.1250915527344	-364.7262878417969	466.7637634277344	-318.4091186523438	410.89013671875	299.8759460449219	-208.6713714599609	332.8816528320312	286.3541870117188	-206.8941802978516	-345.9484558105469	429.9254760742188	-416.8063354492188	414.630126953125	118.3943328857422	-228.07275390625	617.2508544921875	163.7893829345703	-258.94775390625	374.881103515625	68.19784545898438	-281.9654235839844	401.7517395019531	50.22113418579102	-313.7477722167969	387.8091430664062	45.18009948730469	-257.240234375	-377.0967102050781	485.4482727050781	-369.1956481933594
157	0.78	259.5039978027344	1440.183837890625	-481.7662963867188	229.9012603759766	1430.663452148438	-190.088623046875	227.3269500732422	986.0625	-474.0324401855469	254.1608734130859	982.5010375976562	-201.0800170898438	262.3132019042969	932.66796875	-452.3167724609375	-320.3660888671875	481.5978393554688	-349.4909973144531	279.2160034179688	940.7042846679688	-223.229248046875	100.7039947509766	882.1356201171875	-490.2808227539062	141.2318115234375	885.7479858398438	-166.0781707763672	102.7451248168945	992.4268188476562	-335.2225952148438	125.0438461303711	647.84130859375	-505.9212341308594	-160.6410064697266	502.5371704101562	-449.1366577148438	51.04827880859375	666.1749267578125	-477.654052734375	108.2366256713867	549.641845703125	-492.6461486816406	567.7296142578125	107.5436019897461	-201.4845123291016	-67.57687377929688	523.19140625	-477.0523376464844	33.01753997802734	569.7387084960938	-467.1292419433594	348.5481567382812	689.5120239257812	-176.5617980957031	-402.6115112304688	237.1332397460938	-386.3006286621094	276.2177124023438	660.4157104492188	-166.2011413574219	387.2362670898438	601.5093994140625	-209.3652496337891	311.7879333496094	567.4993896484375	-189.3272552490234	51.44910430908203	500.1127319335938	-485.1779174804688	360.4026489257812	510.64892578125	-199.9713745117188	-48.68338394165039	442.5021057128906	-477.9888000488281	-146.74267578125	423.0775756835938	-454.8083190917969	409.0456237792969	395.4761047363281	-197.7067413330078	-413.783447265625	313.1309814453125	-434.8658447265625	325.5583190917969	376.7336730957031	-194.1428833007812	-338.6173706054688	470.4378051757812	-318.2383117675781	425.9222717285156	293.73046875	-210.5457305908203	347.9685668945312	282.1722717285156	-208.1614074707031	-320.2489318847656	432.8719482421875	-416.194580078125	424.9396667480469	112.6510772705078	-229.9821624755859	628.0641479492188	154.22021484375	-261.8842163085938	384.0528259277344	64.86304473876953	-284.2282104492188	409.9548034667969	45.84278106689453	-316.0891418457031	395.6783447265625	41.57981872558594	-259.2980041503906	-351.1177673339844	489.2214660644531	-369.272216796875
